<mxfile host="app.diagrams.net" modified="2024-04-27T17:51:40.292Z" agent="Mozilla/5.0 (Windows NT 10.0; Win64; x64) AppleWebKit/537.36 (KHTML, like Gecko) Chrome/124.0.0.0 Safari/537.36" etag="XDSN2RhldG94QzzdFnj8" version="24.2.2" type="device">
  <diagram name="Page-1" id="XC5zXjzZgVt7uV8gITNf">
    <mxGraphModel dx="2927" dy="1114" grid="1" gridSize="10" guides="1" tooltips="1" connect="1" arrows="1" fold="1" page="1" pageScale="1" pageWidth="827" pageHeight="1169" math="0" shadow="0">
      <root>
        <mxCell id="0" />
        <mxCell id="1" parent="0" />
        <mxCell id="iokkLyqc7rdxHPqiGMny-1" value="IslandEstates.lk&lt;br style=&quot;font-size: 13px;&quot;&gt;Land sales managment system" style="rounded=1;whiteSpace=wrap;html=1;fontSize=13;fontStyle=1" vertex="1" parent="1">
          <mxGeometry x="280" y="40" width="290" height="60" as="geometry" />
        </mxCell>
        <mxCell id="iokkLyqc7rdxHPqiGMny-2" value="" style="endArrow=classic;html=1;rounded=0;exitX=0.5;exitY=1;exitDx=0;exitDy=0;fontSize=13;fontStyle=1" edge="1" parent="1" source="iokkLyqc7rdxHPqiGMny-1">
          <mxGeometry width="50" height="50" relative="1" as="geometry">
            <mxPoint x="350" y="210" as="sourcePoint" />
            <mxPoint x="425" y="160" as="targetPoint" />
          </mxGeometry>
        </mxCell>
        <mxCell id="iokkLyqc7rdxHPqiGMny-3" value="" style="endArrow=none;html=1;rounded=0;fontSize=13;fontStyle=1" edge="1" parent="1">
          <mxGeometry width="50" height="50" relative="1" as="geometry">
            <mxPoint x="-73" y="160" as="sourcePoint" />
            <mxPoint x="1170" y="160" as="targetPoint" />
          </mxGeometry>
        </mxCell>
        <mxCell id="iokkLyqc7rdxHPqiGMny-4" value="" style="endArrow=classic;html=1;rounded=0;exitX=0.5;exitY=1;exitDx=0;exitDy=0;entryX=0.5;entryY=0;entryDx=0;entryDy=0;fontSize=13;fontStyle=1" edge="1" parent="1" target="iokkLyqc7rdxHPqiGMny-15">
          <mxGeometry width="50" height="50" relative="1" as="geometry">
            <mxPoint x="-70" y="160" as="sourcePoint" />
            <mxPoint x="-70" y="220" as="targetPoint" />
          </mxGeometry>
        </mxCell>
        <mxCell id="iokkLyqc7rdxHPqiGMny-5" value="" style="endArrow=classic;html=1;rounded=0;exitX=0.5;exitY=1;exitDx=0;exitDy=0;entryX=0.5;entryY=0;entryDx=0;entryDy=0;fontSize=13;fontStyle=1" edge="1" parent="1" target="iokkLyqc7rdxHPqiGMny-16">
          <mxGeometry width="50" height="50" relative="1" as="geometry">
            <mxPoint x="160" y="160" as="sourcePoint" />
            <mxPoint x="160" y="220" as="targetPoint" />
          </mxGeometry>
        </mxCell>
        <mxCell id="iokkLyqc7rdxHPqiGMny-6" value="" style="endArrow=classic;html=1;rounded=0;exitX=0.5;exitY=1;exitDx=0;exitDy=0;entryX=0.5;entryY=0;entryDx=0;entryDy=0;fontSize=13;fontStyle=1" edge="1" parent="1" target="iokkLyqc7rdxHPqiGMny-17">
          <mxGeometry width="50" height="50" relative="1" as="geometry">
            <mxPoint x="360" y="160" as="sourcePoint" />
            <mxPoint x="360" y="220" as="targetPoint" />
          </mxGeometry>
        </mxCell>
        <mxCell id="iokkLyqc7rdxHPqiGMny-7" value="" style="endArrow=classic;html=1;rounded=0;exitX=0.5;exitY=1;exitDx=0;exitDy=0;entryX=0.5;entryY=0;entryDx=0;entryDy=0;fontSize=13;fontStyle=1" edge="1" parent="1" target="iokkLyqc7rdxHPqiGMny-18">
          <mxGeometry width="50" height="50" relative="1" as="geometry">
            <mxPoint x="520" y="160" as="sourcePoint" />
            <mxPoint x="520" y="220" as="targetPoint" />
          </mxGeometry>
        </mxCell>
        <mxCell id="iokkLyqc7rdxHPqiGMny-8" value="" style="endArrow=classic;html=1;rounded=0;entryX=0.5;entryY=0;entryDx=0;entryDy=0;fontSize=13;fontStyle=1" edge="1" parent="1" target="iokkLyqc7rdxHPqiGMny-19">
          <mxGeometry width="50" height="50" relative="1" as="geometry">
            <mxPoint x="690" y="160" as="sourcePoint" />
            <mxPoint x="640" y="220" as="targetPoint" />
          </mxGeometry>
        </mxCell>
        <mxCell id="iokkLyqc7rdxHPqiGMny-9" value="" style="endArrow=classic;html=1;rounded=0;exitX=0.5;exitY=1;exitDx=0;exitDy=0;entryX=0.5;entryY=0;entryDx=0;entryDy=0;fontSize=13;fontStyle=1" edge="1" parent="1" target="iokkLyqc7rdxHPqiGMny-20">
          <mxGeometry width="50" height="50" relative="1" as="geometry">
            <mxPoint x="850" y="160" as="sourcePoint" />
            <mxPoint x="850" y="220" as="targetPoint" />
          </mxGeometry>
        </mxCell>
        <mxCell id="iokkLyqc7rdxHPqiGMny-10" value="" style="endArrow=classic;html=1;rounded=0;exitX=0.5;exitY=1;exitDx=0;exitDy=0;entryX=0.5;entryY=0;entryDx=0;entryDy=0;fontSize=13;fontStyle=1" edge="1" parent="1" target="iokkLyqc7rdxHPqiGMny-21">
          <mxGeometry width="50" height="50" relative="1" as="geometry">
            <mxPoint x="1020" y="160" as="sourcePoint" />
            <mxPoint x="1020" y="220" as="targetPoint" />
          </mxGeometry>
        </mxCell>
        <mxCell id="iokkLyqc7rdxHPqiGMny-11" value="" style="endArrow=classic;html=1;rounded=0;exitX=0.5;exitY=1;exitDx=0;exitDy=0;entryX=0.5;entryY=0;entryDx=0;entryDy=0;fontSize=13;fontStyle=1" edge="1" parent="1">
          <mxGeometry width="50" height="50" relative="1" as="geometry">
            <mxPoint x="1169.5" y="160" as="sourcePoint" />
            <mxPoint x="1170.09" y="270" as="targetPoint" />
          </mxGeometry>
        </mxCell>
        <mxCell id="iokkLyqc7rdxHPqiGMny-13" value="&amp;nbsp; Level 1" style="html=1;shadow=0;dashed=0;align=center;verticalAlign=middle;shape=mxgraph.arrows2.arrow;dy=0;dx=30;notch=30;fontSize=13;fontStyle=1" vertex="1" parent="1">
          <mxGeometry x="-320" y="270" width="100" height="60" as="geometry" />
        </mxCell>
        <mxCell id="iokkLyqc7rdxHPqiGMny-14" value="" style="endArrow=none;html=1;rounded=0;dashed=1;dashPattern=1 1;fontSize=13;fontStyle=1" edge="1" parent="1">
          <mxGeometry width="50" height="50" relative="1" as="geometry">
            <mxPoint x="-246" y="400" as="sourcePoint" />
            <mxPoint x="1400" y="400" as="targetPoint" />
          </mxGeometry>
        </mxCell>
        <mxCell id="iokkLyqc7rdxHPqiGMny-15" value="Database managment" style="rounded=1;whiteSpace=wrap;html=1;fontSize=13;fontStyle=1" vertex="1" parent="1">
          <mxGeometry x="-130" y="270" width="120" height="60" as="geometry" />
        </mxCell>
        <mxCell id="iokkLyqc7rdxHPqiGMny-16" value="User managment" style="rounded=1;whiteSpace=wrap;html=1;fontSize=13;fontStyle=1" vertex="1" parent="1">
          <mxGeometry x="100" y="270" width="120" height="60" as="geometry" />
        </mxCell>
        <mxCell id="iokkLyqc7rdxHPqiGMny-17" value="System managment" style="rounded=1;whiteSpace=wrap;html=1;fontSize=13;fontStyle=1" vertex="1" parent="1">
          <mxGeometry x="300" y="270" width="120" height="60" as="geometry" />
        </mxCell>
        <mxCell id="iokkLyqc7rdxHPqiGMny-18" value="Employee managment" style="rounded=1;whiteSpace=wrap;html=1;fontSize=13;fontStyle=1" vertex="1" parent="1">
          <mxGeometry x="460" y="270" width="120" height="60" as="geometry" />
        </mxCell>
        <mxCell id="iokkLyqc7rdxHPqiGMny-19" value="Sales and Inventory&lt;div style=&quot;font-size: 13px;&quot;&gt;managment&amp;nbsp;&lt;/div&gt;&lt;div style=&quot;font-size: 13px;&quot;&gt;system&lt;/div&gt;" style="rounded=1;whiteSpace=wrap;html=1;fontSize=13;fontStyle=1" vertex="1" parent="1">
          <mxGeometry x="620" y="270" width="150" height="60" as="geometry" />
        </mxCell>
        <mxCell id="iokkLyqc7rdxHPqiGMny-20" value="Transection processing system" style="rounded=1;whiteSpace=wrap;html=1;fontSize=13;fontStyle=1" vertex="1" parent="1">
          <mxGeometry x="790" y="270" width="120" height="60" as="geometry" />
        </mxCell>
        <mxCell id="iokkLyqc7rdxHPqiGMny-21" value="Financial managment&lt;div style=&quot;font-size: 13px;&quot;&gt;system&lt;/div&gt;" style="rounded=1;whiteSpace=wrap;html=1;fontSize=13;fontStyle=1" vertex="1" parent="1">
          <mxGeometry x="950" y="270" width="140" height="60" as="geometry" />
        </mxCell>
        <mxCell id="iokkLyqc7rdxHPqiGMny-22" value="security managment&amp;nbsp;&lt;div style=&quot;font-size: 13px;&quot;&gt;system&lt;/div&gt;" style="rounded=1;whiteSpace=wrap;html=1;fontSize=13;fontStyle=1" vertex="1" parent="1">
          <mxGeometry x="1110" y="270" width="120" height="60" as="geometry" />
        </mxCell>
        <mxCell id="iokkLyqc7rdxHPqiGMny-24" value="" style="endArrow=none;html=1;rounded=0;entryX=0.5;entryY=1;entryDx=0;entryDy=0;fontSize=13;fontStyle=1" edge="1" parent="1" target="iokkLyqc7rdxHPqiGMny-15">
          <mxGeometry width="50" height="50" relative="1" as="geometry">
            <mxPoint x="-70" y="440" as="sourcePoint" />
            <mxPoint x="-60" y="360" as="targetPoint" />
          </mxGeometry>
        </mxCell>
        <mxCell id="iokkLyqc7rdxHPqiGMny-25" value="Database handler" style="rounded=1;whiteSpace=wrap;html=1;fontSize=13;fontStyle=1" vertex="1" parent="1">
          <mxGeometry x="-130" y="440" width="120" height="60" as="geometry" />
        </mxCell>
        <mxCell id="iokkLyqc7rdxHPqiGMny-26" value="&amp;nbsp; Level 2" style="html=1;shadow=0;dashed=0;align=center;verticalAlign=middle;shape=mxgraph.arrows2.arrow;dy=0;dx=30;notch=26.43;fontSize=13;fontStyle=1" vertex="1" parent="1">
          <mxGeometry x="-320" y="440" width="100" height="60" as="geometry" />
        </mxCell>
        <mxCell id="iokkLyqc7rdxHPqiGMny-27" value="" style="endArrow=none;html=1;rounded=0;entryX=0;entryY=0.5;entryDx=0;entryDy=0;fontSize=13;fontStyle=1" edge="1" parent="1" target="iokkLyqc7rdxHPqiGMny-25">
          <mxGeometry width="50" height="50" relative="1" as="geometry">
            <mxPoint x="-160" y="940" as="sourcePoint" />
            <mxPoint x="-150" y="490" as="targetPoint" />
            <Array as="points">
              <mxPoint x="-160" y="680" />
              <mxPoint x="-160" y="470" />
            </Array>
          </mxGeometry>
        </mxCell>
        <mxCell id="iokkLyqc7rdxHPqiGMny-28" value="Update user details" style="rounded=1;whiteSpace=wrap;html=1;fontSize=13;fontStyle=1" vertex="1" parent="1">
          <mxGeometry x="-130" y="650" width="120" height="60" as="geometry" />
        </mxCell>
        <mxCell id="iokkLyqc7rdxHPqiGMny-29" value="&amp;nbsp; Level 3" style="html=1;shadow=0;dashed=0;align=center;verticalAlign=middle;shape=mxgraph.arrows2.arrow;dy=0;dx=30;notch=26.43;fontSize=13;fontStyle=1" vertex="1" parent="1">
          <mxGeometry x="-320" y="650" width="100" height="60" as="geometry" />
        </mxCell>
        <mxCell id="iokkLyqc7rdxHPqiGMny-30" value="" style="endArrow=none;html=1;rounded=0;dashed=1;dashPattern=1 1;fontSize=13;fontStyle=1" edge="1" parent="1">
          <mxGeometry width="50" height="50" relative="1" as="geometry">
            <mxPoint x="-240" y="600" as="sourcePoint" />
            <mxPoint x="1406" y="600" as="targetPoint" />
          </mxGeometry>
        </mxCell>
        <mxCell id="iokkLyqc7rdxHPqiGMny-32" value="" style="endArrow=none;html=1;rounded=0;entryX=0;entryY=0.5;entryDx=0;entryDy=0;fontSize=13;fontStyle=1" edge="1" parent="1" target="iokkLyqc7rdxHPqiGMny-28">
          <mxGeometry width="50" height="50" relative="1" as="geometry">
            <mxPoint x="-160" y="680" as="sourcePoint" />
            <mxPoint x="-110" y="630" as="targetPoint" />
          </mxGeometry>
        </mxCell>
        <mxCell id="iokkLyqc7rdxHPqiGMny-33" value="Store user details" style="rounded=1;whiteSpace=wrap;html=1;fontSize=13;fontStyle=1" vertex="1" parent="1">
          <mxGeometry x="-130" y="770" width="120" height="60" as="geometry" />
        </mxCell>
        <mxCell id="iokkLyqc7rdxHPqiGMny-34" value="" style="endArrow=none;html=1;rounded=0;entryX=0;entryY=0.5;entryDx=0;entryDy=0;fontSize=13;fontStyle=1" edge="1" parent="1" target="iokkLyqc7rdxHPqiGMny-33">
          <mxGeometry width="50" height="50" relative="1" as="geometry">
            <mxPoint x="-160" y="800" as="sourcePoint" />
            <mxPoint x="-110" y="750" as="targetPoint" />
          </mxGeometry>
        </mxCell>
        <mxCell id="iokkLyqc7rdxHPqiGMny-35" value="Manage database" style="rounded=1;whiteSpace=wrap;html=1;fontSize=13;fontStyle=1" vertex="1" parent="1">
          <mxGeometry x="-130" y="910" width="120" height="60" as="geometry" />
        </mxCell>
        <mxCell id="iokkLyqc7rdxHPqiGMny-36" value="" style="endArrow=none;html=1;rounded=0;entryX=0;entryY=0.5;entryDx=0;entryDy=0;fontSize=13;fontStyle=1" edge="1" parent="1">
          <mxGeometry width="50" height="50" relative="1" as="geometry">
            <mxPoint x="-160" y="939.5" as="sourcePoint" />
            <mxPoint x="-130" y="939.5" as="targetPoint" />
          </mxGeometry>
        </mxCell>
        <mxCell id="iokkLyqc7rdxHPqiGMny-37" value="" style="endArrow=none;html=1;rounded=0;entryX=0.5;entryY=1;entryDx=0;entryDy=0;fontSize=13;fontStyle=1" edge="1" parent="1">
          <mxGeometry width="50" height="50" relative="1" as="geometry">
            <mxPoint x="160" y="440" as="sourcePoint" />
            <mxPoint x="160" y="330" as="targetPoint" />
          </mxGeometry>
        </mxCell>
        <mxCell id="iokkLyqc7rdxHPqiGMny-38" value="User account&amp;nbsp;&lt;div style=&quot;font-size: 13px;&quot;&gt;handler&lt;/div&gt;" style="rounded=1;whiteSpace=wrap;html=1;fontSize=13;fontStyle=1" vertex="1" parent="1">
          <mxGeometry x="100" y="440" width="120" height="60" as="geometry" />
        </mxCell>
        <mxCell id="iokkLyqc7rdxHPqiGMny-39" value="" style="endArrow=none;html=1;rounded=0;entryX=0.5;entryY=1;entryDx=0;entryDy=0;exitX=0.5;exitY=0;exitDx=0;exitDy=0;fontSize=13;fontStyle=1" edge="1" parent="1" source="iokkLyqc7rdxHPqiGMny-40">
          <mxGeometry width="50" height="50" relative="1" as="geometry">
            <mxPoint x="160" y="760" as="sourcePoint" />
            <mxPoint x="159.5" y="500" as="targetPoint" />
          </mxGeometry>
        </mxCell>
        <mxCell id="iokkLyqc7rdxHPqiGMny-40" value="Activate user&amp;nbsp;&lt;div style=&quot;font-size: 13px;&quot;&gt;account&lt;/div&gt;" style="rounded=1;whiteSpace=wrap;html=1;fontSize=13;fontStyle=1" vertex="1" parent="1">
          <mxGeometry x="100" y="770" width="120" height="60" as="geometry" />
        </mxCell>
        <mxCell id="iokkLyqc7rdxHPqiGMny-43" value="" style="endArrow=none;html=1;rounded=0;entryX=0.5;entryY=1;entryDx=0;entryDy=0;fontSize=13;fontStyle=1" edge="1" parent="1">
          <mxGeometry width="50" height="50" relative="1" as="geometry">
            <mxPoint x="359.5" y="440" as="sourcePoint" />
            <mxPoint x="359.5" y="330" as="targetPoint" />
          </mxGeometry>
        </mxCell>
        <mxCell id="iokkLyqc7rdxHPqiGMny-44" value="User registration&amp;nbsp;&lt;div style=&quot;font-size: 13px;&quot;&gt;handler&lt;/div&gt;" style="rounded=1;whiteSpace=wrap;html=1;fontSize=13;fontStyle=1" vertex="1" parent="1">
          <mxGeometry x="300" y="440" width="120" height="60" as="geometry" />
        </mxCell>
        <mxCell id="iokkLyqc7rdxHPqiGMny-45" value="" style="endArrow=none;html=1;rounded=0;entryX=0.5;entryY=1;entryDx=0;entryDy=0;exitX=0.5;exitY=0;exitDx=0;exitDy=0;fontSize=13;fontStyle=1" edge="1" parent="1">
          <mxGeometry width="50" height="50" relative="1" as="geometry">
            <mxPoint x="340.5" y="770" as="sourcePoint" />
            <mxPoint x="340" y="500" as="targetPoint" />
          </mxGeometry>
        </mxCell>
        <mxCell id="iokkLyqc7rdxHPqiGMny-46" value="Send confirmation&lt;div style=&quot;font-size: 13px;&quot;&gt;Email&lt;/div&gt;" style="rounded=1;whiteSpace=wrap;html=1;fontSize=13;fontStyle=1" vertex="1" parent="1">
          <mxGeometry x="280" y="770" width="120" height="60" as="geometry" />
        </mxCell>
        <mxCell id="iokkLyqc7rdxHPqiGMny-47" value="" style="endArrow=none;html=1;rounded=0;entryX=1;entryY=0.5;entryDx=0;entryDy=0;exitX=1;exitY=0.5;exitDx=0;exitDy=0;fontSize=13;fontStyle=1" edge="1" parent="1" source="iokkLyqc7rdxHPqiGMny-48" target="iokkLyqc7rdxHPqiGMny-44">
          <mxGeometry width="50" height="50" relative="1" as="geometry">
            <mxPoint x="400" y="880" as="sourcePoint" />
            <mxPoint x="450" y="470" as="targetPoint" />
            <Array as="points">
              <mxPoint x="450" y="890" />
              <mxPoint x="450" y="470" />
            </Array>
          </mxGeometry>
        </mxCell>
        <mxCell id="iokkLyqc7rdxHPqiGMny-48" value="Create registration&lt;div style=&quot;font-size: 13px;&quot;&gt;profile&lt;/div&gt;" style="rounded=1;whiteSpace=wrap;html=1;fontSize=13;fontStyle=1" vertex="1" parent="1">
          <mxGeometry x="280" y="860" width="120" height="60" as="geometry" />
        </mxCell>
        <mxCell id="iokkLyqc7rdxHPqiGMny-49" value="" style="endArrow=none;html=1;rounded=0;entryX=0.5;entryY=1;entryDx=0;entryDy=0;fontSize=13;fontStyle=1" edge="1" parent="1">
          <mxGeometry width="50" height="50" relative="1" as="geometry">
            <mxPoint x="1170" y="440" as="sourcePoint" />
            <mxPoint x="1170" y="330" as="targetPoint" />
          </mxGeometry>
        </mxCell>
        <mxCell id="iokkLyqc7rdxHPqiGMny-50" value="User password&lt;div style=&quot;font-size: 13px;&quot;&gt;handler&lt;/div&gt;" style="rounded=1;whiteSpace=wrap;html=1;fontSize=13;fontStyle=1" vertex="1" parent="1">
          <mxGeometry x="1110" y="440" width="120" height="60" as="geometry" />
        </mxCell>
        <mxCell id="iokkLyqc7rdxHPqiGMny-51" value="" style="endArrow=none;html=1;rounded=0;entryX=0.5;entryY=1;entryDx=0;entryDy=0;fontSize=13;fontStyle=1" edge="1" parent="1">
          <mxGeometry width="50" height="50" relative="1" as="geometry">
            <mxPoint x="1170" y="640" as="sourcePoint" />
            <mxPoint x="1169.5" y="500" as="targetPoint" />
          </mxGeometry>
        </mxCell>
        <mxCell id="iokkLyqc7rdxHPqiGMny-52" value="Validate user&amp;nbsp;&lt;div style=&quot;font-size: 13px;&quot;&gt;password&lt;/div&gt;" style="rounded=1;whiteSpace=wrap;html=1;fontSize=13;fontStyle=1" vertex="1" parent="1">
          <mxGeometry x="1110" y="640" width="120" height="60" as="geometry" />
        </mxCell>
      </root>
    </mxGraphModel>
  </diagram>
</mxfile>
